<?xml version="1.0" standalone="no"?>
<!DOCTYPE svg PUBLIC "-//W3C//DTD SVG 20010904//EN"
 "http://www.w3.org/TR/2001/REC-SVG-20010904/DTD/svg10.dtd">
<svg version="1.0" xmlns="http://www.w3.org/2000/svg"
 width="900.000000pt" height="900.000000pt" viewBox="0 0 900.000000 900.000000"
 preserveAspectRatio="xMidYMid meet">
<metadata>
Created by potrace 1.10, written by Peter Selinger 2001-2011
</metadata>
<g transform="translate(0.000000,900.000000) scale(0.100000,-0.100000)"
fill="#000000" stroke="none">
<path d="M1394 6744 c-10 -37 4 -300 22 -434 32 -241 68 -472 90 -575 8 -38
14 -82 14 -97 0 -15 5 -39 10 -54 6 -14 15 -54 20 -88 5 -33 15 -81 21 -106 6
-25 18 -72 26 -105 31 -130 72 -271 89 -313 8 -18 14 -39 14 -47 0 -8 6 -29
14 -47 8 -18 22 -53 31 -78 9 -25 24 -61 32 -80 8 -19 21 -48 28 -65 113 -262
237 -436 353 -492 82 -39 188 -51 326 -36 172 18 238 42 318 113 51 45 98 133
98 185 0 42 -52 153 -120 255 -28 41 -55 84 -60 95 -6 11 -19 34 -30 50 -11
17 -23 37 -27 45 -4 8 -26 43 -50 77 -24 35 -43 65 -43 68 0 3 -20 34 -44 69
-24 35 -45 68 -47 73 -2 4 -80 122 -174 261 -93 140 -177 264 -185 277 -8 13
-42 63 -75 110 -33 48 -67 97 -75 110 -8 13 -37 56 -65 97 -53 78 -68 101 -85
133 -6 11 -19 34 -30 50 -11 17 -24 39 -30 50 -6 11 -19 34 -30 50 -10 17 -25
41 -33 55 -12 23 -141 240 -170 285 -36 59 -100 135 -112 135 -8 0 -18 -12
-21 -26z"/>
<path d="M7327 6713 c-24 -32 -60 -85 -81 -118 -20 -33 -41 -67 -47 -75 -22
-35 -156 -266 -162 -280 -4 -8 -15 -27 -25 -42 -9 -15 -37 -59 -62 -98 -68
-108 -71 -112 -135 -205 -33 -47 -67 -97 -75 -110 -8 -13 -118 -177 -245 -366
-126 -189 -232 -347 -234 -352 -2 -5 -22 -37 -45 -71 -23 -33 -45 -68 -49 -76
-4 -8 -16 -28 -27 -45 -11 -16 -23 -37 -27 -45 -4 -8 -25 -42 -47 -75 -57 -85
-65 -97 -76 -120 -6 -11 -19 -33 -30 -50 -11 -16 -22 -37 -26 -45 -3 -8 -12
-30 -20 -48 -53 -123 56 -280 236 -338 79 -26 265 -41 355 -29 167 22 248 91
392 330 14 24 79 156 100 205 9 19 22 48 29 63 8 16 14 36 14 46 0 9 5 22 11
28 6 6 14 26 19 44 5 19 19 66 33 104 13 39 32 97 42 130 10 33 24 78 31 100
8 23 14 49 14 59 0 10 6 39 14 65 14 43 21 78 60 274 8 39 22 106 31 147 8 41
15 89 15 105 0 17 7 55 15 85 8 30 15 70 15 88 0 18 6 70 14 115 38 215 66
558 51 625 -3 18 -13 32 -20 32 -8 0 -34 -26 -58 -57z"/>
</g>
</svg>
