<?xml version="1.0" standalone="no"?>
<!DOCTYPE svg PUBLIC "-//W3C//DTD SVG 20010904//EN"
 "http://www.w3.org/TR/2001/REC-SVG-20010904/DTD/svg10.dtd">
<svg version="1.0" xmlns="http://www.w3.org/2000/svg"
 width="900.000000pt" height="900.000000pt" viewBox="0 0 900.000000 900.000000"
 preserveAspectRatio="xMidYMid meet">
<metadata>
Created by potrace 1.10, written by Peter Selinger 2001-2011
</metadata>
<g transform="translate(0.000000,900.000000) scale(0.100000,-0.100000)"
fill="#000000" stroke="none">
<path style = "stroke: white;stroke-width: 50px;stroke-linejoin: round;paint-order: stroke;" d="M1394 6744 c-10 -37 4 -300 22 -434 32 -241 68 -472 90 -575 8 -38
14 -82 14 -97 0 -15 5 -39 10 -54 6 -14 15 -54 20 -88 5 -33 15 -81 21 -106 6
-25 18 -72 26 -105 31 -130 72 -271 89 -313 8 -18 14 -39 14 -47 0 -8 6 -29
14 -47 8 -18 22 -53 31 -78 9 -25 24 -61 32 -80 8 -19 21 -48 28 -65 113 -262
237 -436 353 -492 82 -39 188 -51 326 -36 182 19 250 45 331 127 57 58 91 136
82 190 -7 45 -57 146 -117 236 -28 41 -55 84 -60 95 -6 11 -18 32 -28 47 -27
42 -106 167 -117 186 -6 9 -28 44 -50 77 -22 33 -42 65 -45 70 -3 6 -81 124
-175 263 -93 140 -177 264 -185 277 -8 13 -42 63 -75 110 -33 48 -67 97 -75
110 -8 13 -37 56 -65 97 -53 78 -68 101 -85 133 -6 11 -19 34 -30 50 -11 17
-24 39 -30 50 -6 11 -19 34 -30 50 -10 17 -25 41 -33 55 -12 23 -141 240 -170
285 -36 59 -100 135 -112 135 -8 0 -18 -12 -21 -26z"/>
<path style = "stroke: white;stroke-width: 50px;stroke-linejoin: round;paint-order: stroke;" d="M7327 6713 c-24 -32 -60 -85 -81 -118 -20 -33 -41 -67 -47 -75 -22
-35 -156 -266 -162 -280 -4 -8 -15 -27 -25 -42 -9 -15 -37 -59 -62 -98 -68
-108 -71 -112 -135 -205 -33 -47 -67 -97 -75 -110 -8 -13 -118 -177 -245 -366
-126 -189 -232 -348 -235 -354 -3 -5 -23 -37 -45 -70 -45 -67 -59 -91 -75
-120 -6 -11 -18 -32 -28 -46 -9 -15 -37 -59 -62 -98 -25 -40 -53 -84 -62 -99
-38 -59 -81 -159 -86 -198 -12 -107 98 -232 248 -280 79 -26 265 -41 355 -29
167 22 248 91 392 330 14 24 79 156 100 205 9 19 22 48 29 63 8 16 14 36 14
46 0 9 5 22 11 28 6 6 14 26 19 44 5 19 19 66 33 104 13 39 32 97 42 130 10
33 24 78 31 100 8 23 14 49 14 59 0 10 6 39 14 65 14 43 21 78 60 274 8 39 22
106 31 147 8 41 15 89 15 105 0 17 7 55 15 85 8 30 15 70 15 88 0 18 6 70 14
115 38 215 66 558 51 625 -3 18 -13 32 -20 32 -8 0 -34 -26 -58 -57z"/>
<path style = "stroke: white;stroke-width: 50px;stroke-linejoin: round;paint-order: stroke;" d="M4165 5283 c-641 -59 -813 -85 -990 -150 -22 -9 -56 -21 -75 -28 -53
-20 -208 -84 -270 -112 -125 -57 -140 -65 -140 -79 0 -8 12 -33 27 -57 37 -57
51 -79 59 -97 26 -50 87 -130 101 -130 9 0 35 8 57 19 58 27 101 41 176 57
132 29 179 15 365 -107 55 -36 119 -75 143 -87 51 -26 128 -29 180 -6 21 8 51
21 67 28 17 7 46 20 66 30 28 14 54 17 110 13 81 -4 123 -18 243 -78 95 -47
138 -50 204 -13 26 15 85 42 131 60 94 38 184 45 243 20 18 -8 60 -27 93 -42
84 -39 163 -43 223 -14 26 13 61 33 79 46 17 13 35 24 38 24 4 0 24 12 44 28
78 59 163 100 224 108 70 10 196 -19 304 -68 49 -23 73 -21 88 7 6 11 28 47
50 80 50 76 62 95 74 122 5 11 15 24 20 28 17 10 13 45 -6 52 -10 3 -54 23
-98 43 -72 34 -202 89 -295 125 -19 8 -60 22 -90 31 -30 9 -70 23 -88 30 -18
8 -40 14 -50 14 -9 0 -46 6 -82 14 -112 26 -320 50 -780 91 -200 18 -239 17
-445 -2z"/>
<path style = "stroke: white;stroke-width: 50px;stroke-linejoin: round;paint-order: stroke;" d="M3130 4671 c-48 -8 -106 -27 -182 -60 -53 -22 -60 -44 -33 -91 9 -15
14 -54 15 -101 0 -56 4 -80 15 -89 8 -7 15 -17 15 -22 0 -16 89 -126 124 -153
18 -13 59 -39 92 -57 52 -28 68 -32 139 -32 77 -1 84 1 166 46 93 50 158 66
201 49 15 -6 54 -37 87 -70 60 -60 118 -95 207 -125 47 -15 55 -16 99 -1 51
18 111 52 215 125 83 57 134 61 195 15 22 -16 49 -35 60 -42 11 -7 46 -28 78
-47 31 -19 78 -42 103 -51 43 -14 51 -14 98 1 80 26 150 69 210 129 64 65 95
79 154 70 40 -6 156 -59 190 -88 10 -7 46 -12 101 -11 73 0 94 5 138 27 86 45
148 102 202 184 50 75 51 79 51 153 1 50 6 81 15 94 29 39 19 65 -32 87 -111
48 -167 62 -247 62 -68 1 -88 -3 -124 -24 -65 -36 -72 -41 -141 -87 -138 -93
-169 -106 -251 -107 -68 0 -86 5 -186 48 -62 26 -121 47 -132 47 -21 0 -128
-32 -158 -48 -135 -69 -177 -84 -224 -80 -27 3 -80 20 -117 38 -37 18 -79 38
-93 45 -14 6 -54 20 -89 30 -61 18 -65 18 -115 1 -28 -10 -80 -32 -116 -49
-56 -26 -76 -31 -145 -31 -72 0 -86 3 -140 33 -33 19 -67 40 -76 47 -8 8 -19
14 -23 14 -5 0 -25 12 -45 28 -113 85 -194 110 -301 93z"/>
</g>
</svg>
