<?xml version="1.0" standalone="no"?>
<!DOCTYPE svg PUBLIC "-//W3C//DTD SVG 20010904//EN"
 "http://www.w3.org/TR/2001/REC-SVG-20010904/DTD/svg10.dtd">
<svg version="1.0" xmlns="http://www.w3.org/2000/svg"
 width="900.000000pt" height="900.000000pt" viewBox="0 0 900.000000 900.000000"
 preserveAspectRatio="xMidYMid meet">
<metadata>
Created by potrace 1.10, written by Peter Selinger 2001-2011
</metadata>
<g transform="translate(0.000000,900.000000) scale(0.100000,-0.100000)"
fill="#000000" stroke="none">
<path d="M858 7354 c-27 -14 -47 -65 -59 -149 -4 -27 -12 -77 -19 -110 -35
-178 -80 -457 -110 -685 -33 -247 -35 -984 -4 -1209 8 -58 14 -123 14 -145 0
-39 17 -196 42 -386 6 -47 14 -112 18 -145 8 -75 27 -175 45 -240 8 -27 17
-59 20 -70 9 -34 40 -66 56 -60 16 6 70 109 104 195 9 25 23 57 31 72 8 14 14
33 14 42 0 8 6 30 14 48 26 60 44 112 76 218 18 58 38 121 45 140 7 19 21 62
30 95 10 33 23 76 30 95 7 19 21 62 30 95 10 33 23 76 30 95 7 19 18 51 24 70
7 19 16 49 21 65 5 17 18 55 30 85 42 108 51 135 59 165 5 17 13 41 19 55 24
59 34 110 28 142 -3 18 -10 65 -15 105 -6 39 -14 97 -20 130 -37 214 -67 546
-59 651 5 73 30 109 67 97 41 -13 106 -95 209 -268 80 -131 91 -151 102 -172
6 -11 19 -33 29 -50 11 -16 29 -48 41 -70 12 -22 34 -58 49 -80 15 -22 30 -47
34 -55 17 -35 159 -244 169 -248 5 -2 8 -8 8 -14 0 -6 12 -27 28 -47 15 -20
32 -44 37 -53 26 -43 92 -137 123 -176 30 -38 36 -41 51 -29 9 7 35 19 57 25
158 45 234 -52 350 -448 9 -30 23 -70 30 -88 8 -18 14 -40 14 -48 0 -9 6 -28
14 -42 7 -15 24 -49 36 -77 59 -130 119 -146 240 -65 41 28 109 79 150 115 90
77 173 130 218 140 19 4 54 4 78 0 37 -5 55 -17 107 -68 34 -34 80 -84 102
-110 81 -100 139 -147 180 -147 74 0 235 113 421 294 72 71 101 74 159 18 44
-42 143 -131 195 -176 36 -31 136 -100 187 -128 17 -10 49 -18 71 -18 47 0 93
34 163 120 80 98 153 172 191 191 77 39 167 12 283 -86 26 -22 71 -59 99 -83
92 -78 152 -112 206 -119 49 -6 52 -5 88 34 33 35 54 77 96 193 30 82 38 107
46 140 9 39 25 87 46 138 8 18 14 40 14 48 0 9 6 28 14 42 7 15 26 54 42 87
16 33 47 77 68 97 37 36 43 38 106 38 43 0 73 -5 86 -15 35 -27 66 -18 99 28
17 23 35 49 40 59 6 9 51 76 100 148 50 72 95 139 100 148 6 9 12 19 15 22 13
11 118 173 140 215 6 11 19 34 30 50 11 17 24 39 30 50 6 11 19 34 30 50 10
17 25 41 33 55 11 21 62 107 170 285 17 29 69 97 89 117 70 70 118 25 118
-112 0 -116 -28 -383 -65 -625 -8 -49 -16 -106 -19 -125 -2 -19 -9 -62 -16
-95 -12 -59 -12 -64 23 -165 20 -58 46 -130 57 -160 12 -30 25 -66 30 -80 4
-14 12 -36 18 -50 5 -14 24 -72 42 -130 18 -58 38 -121 45 -140 7 -19 20 -62
30 -95 9 -33 23 -76 30 -95 7 -19 20 -62 30 -95 9 -33 23 -76 30 -95 29 -82
37 -107 45 -135 5 -16 18 -55 30 -85 12 -30 24 -66 27 -80 3 -14 12 -34 19
-45 8 -11 14 -25 14 -33 0 -20 79 -179 96 -193 67 -55 119 188 188 866 42 406
49 543 43 828 -7 379 -35 659 -99 1002 -6 33 -14 83 -18 110 -8 59 -26 155
-46 242 -8 34 -14 71 -14 81 0 11 -11 31 -25 46 -23 24 -31 27 -68 21 -64 -9
-239 -51 -337 -81 -308 -93 -380 -146 -500 -369 -24 -44 -55 -101 -70 -128
-67 -121 -163 -196 -305 -237 -253 -74 -281 -92 -347 -228 -24 -49 -59 -103
-82 -125 l-40 -39 -81 6 c-44 3 -97 8 -118 12 -104 18 -167 -32 -356 -281 -95
-127 -143 -178 -200 -218 -42 -29 -52 -32 -126 -32 -74 0 -85 3 -150 38 -38
21 -108 62 -155 92 -47 29 -107 58 -135 65 -84 20 -105 6 -303 -202 -71 -75
-111 -94 -179 -84 -53 7 -92 35 -218 158 -49 49 -93 88 -99 88 -5 0 -17 7 -27
16 -24 22 -143 21 -195 -2 -22 -9 -106 -50 -189 -91 -130 -64 -157 -73 -203
-73 -45 0 -63 6 -108 36 -61 41 -146 133 -256 279 -94 123 -131 164 -185 199
-45 30 -59 31 -241 10 -94 -11 -132 18 -198 153 -59 119 -108 159 -250 206
-29 9 -59 17 -68 17 -15 0 -45 12 -144 57 -95 43 -154 110 -236 268 -57 109
-128 214 -173 255 -45 42 -98 80 -112 80 -5 0 -22 6 -38 14 -38 19 -95 40
-168 61 -33 10 -78 24 -100 31 -23 8 -49 14 -59 14 -11 0 -42 6 -70 14 -139
38 -172 44 -198 30z"/>
<path d="M1395 6739 c-10 -43 4 -318 21 -414 7 -44 14 -96 14 -115 0 -19 6
-71 14 -115 19 -104 36 -206 45 -275 8 -61 25 -151 46 -250 8 -36 16 -78 18
-95 2 -16 10 -52 17 -80 6 -27 19 -77 27 -110 31 -130 71 -271 89 -313 8 -18
14 -39 14 -47 0 -8 6 -29 14 -47 8 -18 22 -53 31 -78 9 -25 24 -61 32 -80 8
-19 21 -48 28 -65 113 -262 237 -436 353 -492 82 -39 188 -51 326 -36 182 19
250 45 331 127 57 58 91 136 82 190 -7 45 -57 146 -117 236 -28 41 -55 84 -60
95 -6 11 -18 32 -28 47 -27 42 -106 167 -117 186 -6 9 -28 44 -50 77 -22 33
-42 65 -45 70 -3 6 -68 104 -145 218 -77 115 -147 219 -155 232 -8 13 -50 74
-92 137 -42 62 -113 165 -156 229 -43 64 -82 123 -86 130 -8 16 -21 38 -57 94
-14 22 -29 47 -32 55 -4 8 -16 29 -27 45 -11 17 -24 39 -30 50 -6 11 -16 29
-23 40 -7 11 -27 47 -46 80 -19 33 -59 98 -89 145 -106 164 -134 188 -147 129z"/>
<path d="M7327 6713 c-38 -50 -240 -378 -260 -423 -4 -8 -16 -28 -27 -45 -11
-16 -24 -39 -30 -50 -14 -27 -28 -48 -75 -120 -22 -33 -44 -68 -50 -77 -5 -9
-50 -76 -100 -148 -49 -72 -97 -142 -105 -155 -8 -12 -105 -157 -215 -321
-110 -164 -202 -303 -205 -309 -3 -5 -23 -37 -45 -70 -45 -67 -59 -91 -75
-120 -6 -11 -18 -32 -28 -46 -9 -15 -37 -59 -62 -98 -25 -40 -53 -84 -62 -99
-38 -59 -81 -159 -86 -198 -12 -107 98 -232 248 -280 79 -26 265 -41 355 -29
167 22 248 91 392 330 14 24 79 156 100 205 9 19 22 48 29 63 8 16 14 36 14
46 0 9 5 22 11 28 6 6 14 26 19 44 5 19 19 66 33 104 13 39 32 97 42 130 10
33 24 78 31 100 8 23 14 49 14 59 0 10 6 39 14 65 8 25 22 81 30 124 9 42 23
110 31 150 16 79 36 191 59 337 8 52 22 136 31 185 8 50 15 108 15 130 0 22 5
58 10 80 14 55 32 370 24 423 -4 25 -12 42 -20 42 -7 0 -33 -26 -57 -57z"/>
<path d="M4274 4962 c-141 -136 -195 -178 -303 -234 -111 -57 -174 -29 -311
137 -155 189 -214 205 -355 100 -45 -33 -122 -96 -169 -138 -17 -16 -58 -44
-91 -64 -51 -31 -69 -36 -124 -37 -62 -1 -64 0 -98 39 -19 22 -48 69 -66 105
-31 63 -58 83 -65 48 -2 -9 9 -36 25 -60 37 -58 51 -80 59 -98 26 -50 87 -130
101 -130 9 0 35 8 57 19 58 27 101 41 176 57 132 29 179 15 365 -107 55 -36
119 -75 143 -87 51 -26 128 -29 180 -6 78 33 108 47 138 61 22 10 53 13 105
10 81 -4 123 -18 243 -78 95 -47 138 -50 204 -13 26 15 85 42 131 60 94 38
184 45 243 20 18 -8 60 -27 93 -42 84 -39 163 -43 223 -14 26 13 61 33 79 46
17 13 35 24 38 24 4 0 24 12 44 28 126 95 222 124 334 103 61 -12 76 -17 189
-62 31 -12 62 -19 70 -16 8 3 34 37 59 77 24 39 52 83 61 98 10 15 22 36 28
47 5 11 15 27 22 36 17 24 3 51 -24 47 -15 -2 -25 -12 -28 -28 -7 -34 -57
-130 -81 -156 -11 -12 -38 -30 -60 -40 -39 -17 -42 -17 -92 1 -29 10 -59 24
-68 31 -8 8 -20 14 -25 14 -5 0 -36 23 -69 51 -153 129 -189 158 -239 184 -26
14 -60 25 -75 25 -55 0 -126 -52 -191 -140 -18 -25 -64 -75 -101 -112 -73 -71
-114 -87 -181 -73 -81 18 -212 113 -394 287 -40 37 -80 68 -90 68 -11 0 -60
-40 -110 -88z"/>
<path d="M3130 4671 c-48 -8 -106 -27 -182 -60 -53 -22 -60 -44 -33 -91 9 -15
14 -54 15 -101 0 -56 4 -80 15 -89 8 -7 15 -17 15 -22 0 -16 89 -126 124 -153
18 -13 59 -39 92 -57 52 -28 68 -32 139 -32 77 -1 84 1 166 46 93 50 158 66
201 49 15 -6 54 -37 87 -70 60 -60 118 -95 207 -125 47 -15 55 -16 99 -1 51
18 111 52 215 125 83 57 134 61 195 15 22 -16 49 -35 60 -42 11 -7 46 -28 78
-47 31 -19 78 -42 103 -51 43 -14 51 -14 98 1 80 26 150 69 210 129 64 65 95
79 154 70 40 -6 156 -59 190 -88 10 -7 46 -12 101 -11 73 0 94 5 138 27 86 45
148 102 202 184 50 75 51 79 51 153 1 50 6 81 15 94 29 39 19 65 -32 87 -111
48 -167 62 -247 62 -68 1 -88 -3 -124 -24 -65 -36 -72 -41 -141 -87 -138 -93
-169 -106 -251 -107 -68 0 -86 5 -186 48 -62 26 -121 47 -132 47 -21 0 -128
-32 -158 -48 -135 -69 -177 -84 -224 -80 -27 3 -80 20 -117 38 -37 18 -79 38
-93 45 -14 6 -54 20 -89 30 -61 18 -65 18 -115 1 -28 -10 -80 -32 -116 -49
-56 -26 -76 -31 -145 -31 -72 0 -86 3 -140 33 -33 19 -67 40 -76 47 -8 8 -19
14 -23 14 -5 0 -25 12 -45 28 -113 85 -194 110 -301 93z"/>
</g>
</svg>
