<?xml version="1.0" standalone="no"?>
<!DOCTYPE svg PUBLIC "-//W3C//DTD SVG 20010904//EN"
 "http://www.w3.org/TR/2001/REC-SVG-20010904/DTD/svg10.dtd">
<svg version="1.0" xmlns="http://www.w3.org/2000/svg"
 width="900.000000pt" height="900.000000pt" viewBox="0 0 900.000000 900.000000"
 preserveAspectRatio="xMidYMid meet">
<metadata>
Created by potrace 1.10, written by Peter Selinger 2001-2011
</metadata>
<g transform="translate(0.000000,900.000000) scale(0.100000,-0.100000)"
fill="#000000" stroke="none">
<path d="M858 7354 c-27 -14 -47 -65 -59 -149 -4 -27 -12 -77 -19 -110 -35
-178 -80 -457 -110 -685 -33 -247 -35 -984 -4 -1209 8 -58 14 -123 14 -145 0
-39 17 -196 42 -386 6 -47 14 -112 18 -145 8 -75 27 -175 45 -240 8 -27 17
-59 20 -70 9 -34 40 -66 56 -60 16 6 70 109 104 195 9 25 23 57 31 72 8 14 14
33 14 42 0 8 6 30 14 48 26 60 44 112 76 218 18 58 38 121 45 140 7 19 21 62
30 95 10 33 23 76 30 95 7 19 21 62 30 95 10 33 23 76 30 95 7 19 18 51 24 70
7 19 16 49 21 65 5 17 18 55 30 85 41 106 51 135 60 165 16 56 55 165 81 223
21 47 53 57 81 25 19 -23 37 -147 45 -314 6 -152 30 -285 62 -347 20 -39 24
-42 62 -42 23 0 55 8 72 18 31 16 193 138 335 250 37 29 76 57 87 63 11 5 34
18 50 29 17 11 35 22 40 24 185 78 268 -13 391 -434 9 -30 23 -70 30 -88 8
-18 14 -39 14 -47 0 -29 78 -182 106 -208 36 -33 87 -36 142 -7 21 11 88 61
148 110 145 120 219 168 272 176 86 13 150 -25 247 -145 101 -125 166 -181
209 -181 77 1 228 105 421 292 80 77 99 77 180 2 135 -127 260 -232 295 -247
8 -4 33 -18 55 -32 48 -29 110 -32 145 -8 31 22 44 35 110 113 134 160 187
200 261 200 46 0 129 -42 199 -101 25 -21 70 -59 100 -84 97 -81 156 -115 210
-122 49 -6 52 -5 88 34 33 35 54 77 96 193 30 82 38 107 46 140 9 39 25 87 46
138 8 18 14 40 14 48 0 9 6 28 14 42 7 15 26 54 42 87 16 33 47 77 68 97 37
36 43 38 102 38 89 0 169 -43 356 -192 209 -167 288 -218 337 -218 29 0 67 52
84 115 21 78 47 308 47 415 0 95 11 147 40 182 18 22 20 22 46 7 28 -17 30
-21 94 -209 21 -63 48 -140 60 -170 12 -30 25 -66 30 -80 4 -14 12 -36 18 -50
5 -14 24 -72 42 -130 18 -58 38 -121 45 -140 7 -19 20 -62 30 -95 9 -33 23
-76 30 -95 7 -19 20 -62 30 -95 9 -33 23 -76 30 -95 29 -82 37 -107 45 -135 5
-16 18 -55 30 -85 12 -30 24 -66 27 -80 3 -14 12 -34 19 -45 8 -11 14 -25 14
-33 0 -20 79 -179 96 -193 67 -55 119 188 188 866 42 406 49 543 43 828 -7
379 -35 659 -99 1002 -6 33 -14 83 -18 110 -8 59 -26 155 -46 242 -8 34 -14
71 -14 81 0 11 -11 31 -25 46 -23 24 -31 27 -68 21 -64 -9 -239 -51 -337 -81
-308 -93 -380 -146 -500 -369 -24 -44 -55 -101 -70 -128 -67 -121 -163 -196
-305 -237 -253 -74 -281 -92 -347 -228 -24 -49 -59 -103 -82 -125 l-40 -39
-81 6 c-44 3 -97 8 -118 12 -104 18 -167 -32 -356 -281 -95 -127 -143 -178
-200 -218 -42 -29 -52 -32 -126 -32 -74 0 -85 3 -150 38 -38 21 -108 62 -155
92 -47 29 -107 58 -135 65 -84 20 -105 6 -303 -202 -71 -75 -111 -94 -179 -84
-53 7 -92 35 -218 158 -49 49 -93 88 -99 88 -5 0 -17 7 -27 16 -24 22 -143 21
-195 -2 -22 -9 -106 -50 -189 -91 -130 -64 -157 -73 -203 -73 -45 0 -63 6
-108 36 -61 41 -146 133 -256 279 -94 123 -131 164 -185 199 -45 30 -59 31
-241 10 -94 -11 -132 18 -198 153 -59 119 -108 159 -250 206 -29 9 -59 17 -68
17 -15 0 -45 12 -144 57 -95 43 -154 110 -236 268 -57 109 -128 214 -173 255
-45 42 -98 80 -112 80 -5 0 -22 6 -38 14 -38 19 -95 40 -168 61 -33 10 -78 24
-100 31 -23 8 -49 14 -59 14 -11 0 -42 6 -70 14 -139 38 -172 44 -198 30z"/>
<path d="M1374 4539 c-13 -21 -6 -285 11 -419 77 -602 173 -1077 281 -1390 14
-41 29 -88 34 -105 11 -37 37 -109 49 -133 4 -9 15 -33 23 -52 20 -46 116
-240 131 -265 7 -11 38 -54 69 -96 83 -112 144 -154 269 -183 82 -20 128 -20
248 0 125 20 184 39 248 81 85 56 133 134 133 218 0 52 -40 143 -104 239 -22
34 -46 71 -53 82 -6 10 -38 61 -70 112 -32 51 -63 101 -68 110 -6 9 -28 44
-50 77 -22 33 -42 65 -45 71 -3 5 -95 144 -205 308 -110 164 -207 308 -215
321 -8 13 -42 62 -75 110 -33 47 -64 94 -70 103 -5 10 -21 33 -35 52 -14 19
-29 42 -35 52 -5 9 -39 65 -75 125 -82 136 -87 144 -100 168 -6 11 -19 34 -30
50 -11 17 -23 37 -27 45 -4 8 -24 44 -46 80 -109 180 -177 264 -193 239z"/>
<path d="M7324 4512 c-11 -15 -45 -63 -75 -107 -69 -104 -78 -117 -86 -135 -4
-8 -39 -69 -78 -135 -39 -66 -74 -127 -78 -135 -15 -30 -47 -79 -146 -229 -42
-62 -83 -124 -91 -136 -8 -13 -55 -83 -105 -155 -49 -72 -94 -139 -100 -148
-5 -9 -22 -33 -37 -53 -16 -20 -28 -40 -28 -44 0 -4 -13 -24 -30 -45 -16 -21
-30 -41 -30 -45 0 -4 -13 -24 -30 -45 -16 -21 -30 -41 -30 -45 0 -4 -13 -24
-30 -45 -16 -21 -30 -40 -30 -43 0 -3 -20 -35 -45 -71 -25 -37 -45 -68 -45
-70 0 -3 -19 -33 -42 -68 -47 -68 -61 -92 -78 -123 -6 -11 -18 -32 -28 -47 -9
-15 -37 -59 -62 -98 -25 -39 -53 -83 -62 -98 -44 -69 -78 -153 -78 -194 1
-115 86 -219 221 -266 60 -21 242 -53 303 -52 52 0 160 27 216 53 105 49 242
241 345 482 7 17 20 46 28 65 8 19 23 55 32 80 9 25 23 60 31 78 8 18 14 39
14 47 0 8 6 29 14 47 13 30 22 60 62 198 26 93 46 178 89 390 29 141 38 187
45 240 3 30 12 82 18 115 32 170 68 456 82 645 14 199 -4 259 -56 192z"/>
<path d="M4285 3060 c-33 -4 -91 -8 -130 -9 -67 -1 -194 -13 -495 -47 -217
-25 -349 -49 -455 -86 -16 -5 -43 -14 -60 -18 -39 -11 -111 -38 -133 -49 -9
-5 -42 -19 -72 -31 -134 -54 -271 -121 -277 -136 -2 -6 9 -31 25 -55 54 -82
119 -184 130 -205 15 -29 41 -38 61 -21 9 8 25 17 36 20 11 3 52 17 90 31 56
20 89 26 163 26 105 0 122 -7 292 -119 143 -94 147 -96 230 -95 62 0 86 6 140
31 36 17 89 39 119 48 50 16 57 16 120 0 36 -10 107 -37 156 -62 134 -66 159
-66 286 -6 57 28 134 58 170 68 63 16 69 16 120 0 30 -9 83 -31 119 -48 54
-26 77 -31 140 -31 84 0 87 1 245 105 160 105 172 109 278 109 74 0 106 -6
162 -26 39 -14 80 -28 93 -31 12 -3 25 -9 28 -14 9 -16 54 -10 61 8 4 10 25
44 48 78 23 33 44 67 48 75 4 8 16 29 27 45 48 73 42 81 -115 151 -16 7 -60
27 -98 43 -37 17 -73 31 -80 31 -7 0 -21 6 -32 14 -11 7 -31 16 -45 19 -14 3
-56 16 -95 30 -140 49 -246 73 -385 88 -41 4 -113 12 -160 18 -138 17 -388 40
-495 46 -55 3 -122 7 -150 9 -27 2 -77 1 -110 -4z"/>
<path d="M3065 2433 c-27 -8 -63 -21 -80 -28 -16 -7 -49 -20 -72 -30 -47 -20
-53 -37 -27 -74 11 -15 18 -50 20 -99 2 -43 3 -79 3 -82 2 -14 91 -142 117
-167 69 -67 207 -133 279 -133 17 0 83 27 149 60 81 41 131 60 156 60 41 0 89
-31 155 -99 53 -56 170 -111 234 -111 44 0 96 18 156 53 50 30 165 110 171
118 3 5 22 9 42 9 29 0 57 -13 123 -58 47 -32 92 -62 100 -65 8 -4 34 -18 58
-32 100 -56 224 -18 364 112 102 95 112 95 282 13 68 -33 137 -60 152 -60 30
0 127 31 166 53 74 41 139 105 194 191 28 44 33 60 33 117 0 45 7 82 21 113
23 54 18 66 -34 86 -18 7 -46 19 -64 26 -17 8 -37 14 -45 14 -7 0 -31 7 -53
15 -58 21 -128 18 -183 -6 -26 -12 -92 -51 -147 -87 -119 -79 -154 -97 -221
-118 -46 -15 -55 -15 -110 1 -32 9 -84 28 -114 42 -91 43 -137 51 -200 36 -62
-14 -61 -13 -190 -77 -53 -25 -108 -46 -123 -46 -16 0 -70 20 -120 44 -166 79
-168 80 -247 80 -63 0 -85 -4 -140 -30 -36 -17 -92 -39 -124 -49 -55 -17 -62
-17 -110 -2 -67 22 -101 40 -221 119 -55 36 -121 75 -147 87 -55 25 -129 26
-203 4z"/>
</g>
</svg>
