<?xml version="1.0" encoding="UTF-8" standalone="no" ?>
<!DOCTYPE svg PUBLIC "-//W3C//DTD SVG 1.1//EN" "http://www.w3.org/Graphics/SVG/1.1/DTD/svg11.dtd">
<svg xmlns="http://www.w3.org/2000/svg" xmlns:xlink="http://www.w3.org/1999/xlink" version="1.1" width="1080" height="1080" viewBox="0 0 1080 1080" xml:space="preserve">
<desc>Created with Fabric.js 5.2.4</desc>
<defs>
</defs>
<g transform="matrix(1 0 0 1 540 540)" id="8ef704aa-0c6b-498f-b88e-a3d10c34111e"  >
<rect style="stroke: none; stroke-width: 1; stroke-dasharray: none; stroke-linecap: butt; stroke-dashoffset: 0; stroke-linejoin: miter; stroke-miterlimit: 4; fill: rgb(255,255,255); fill-rule: nonzero; opacity: 1; visibility: hidden;" vector-effect="non-scaling-stroke"  x="-540" y="-540" rx="0" ry="0" width="1080" height="1080" />
</g>
<g transform="matrix(1 0 0 1 540 540)" id="c6ea8636-7710-4064-ba61-43f6434a9b55"  >
</g>
<g transform="matrix(1 0 0 1 540 540)"  >
<g style="" vector-effect="non-scaling-stroke"   >
		<g transform="matrix(33.33 0 0 33.33 33.33 -33.33)"  >
<path style="stroke: none; stroke-width: 1; stroke-dasharray: none; stroke-linecap: butt; stroke-dashoffset: 0; stroke-linejoin: miter; stroke-miterlimit: 4; fill: rgb(255,255,255); fill-rule: nonzero; opacity: 1;" vector-effect="non-scaling-stroke"  transform=" translate(-13, -11)" d="M 9 19 C 8.7 19 8.5 18.9 8.3 18.7 L 5.300000000000001 15.7 C 4.9 15.299999999999999 4.9 14.7 5.300000000000001 14.299999999999999 L 16.3 3.299999999999999 C 16.7 2.899999999999999 17.3 2.899999999999999 17.7 3.299999999999999 L 20.7 6.299999999999999 C 21.099999999999998 6.699999999999999 21.099999999999998 7.299999999999999 20.7 7.699999999999999 L 9.7 18.7 C 9.5 18.9 9.3 19 9 19 z M 7.4 15 L 9 16.6 L 18.6 7 L 17 5.4 L 7.4 15 z" stroke-linecap="round" />
</g>
		<g transform="matrix(33.33 0 0 33.33 216.67 -216.67)"  >
<path style="stroke: none; stroke-width: 1; stroke-dasharray: none; stroke-linecap: butt; stroke-dashoffset: 0; stroke-linejoin: miter; stroke-miterlimit: 4; fill: rgb(255,255,255); fill-rule: nonzero; opacity: 1;" vector-effect="non-scaling-stroke"  transform=" translate(-18.5, -5.5)" d="M 22 10 C 21.7 10 21.5 9.9 21.3 9.7 L 14.3 2.6999999999999993 C 13.9 2.2999999999999994 13.9 1.6999999999999993 14.3 1.2999999999999994 C 14.700000000000001 0.8999999999999995 15.3 0.8999999999999994 15.700000000000001 1.2999999999999994 L 22.700000000000003 8.299999999999999 C 23.1 8.7 23.1 9.299999999999999 22.700000000000003 9.7 C 22.5 9.9 22.3 10 22 10 z" stroke-linecap="round" />
</g>
		<g transform="matrix(33.33 0 0 33.33 300 -300)"  >
<path style="stroke: none; stroke-width: 1; stroke-dasharray: none; stroke-linecap: butt; stroke-dashoffset: 0; stroke-linejoin: miter; stroke-miterlimit: 4; fill: rgb(255,255,255); fill-rule: nonzero; opacity: 1;" vector-effect="non-scaling-stroke"  transform=" translate(-21, -3)" d="M 23 6 C 22.7 6 22.5 5.9 22.3 5.7 L 18.3 1.7000000000000002 C 17.900000000000002 1.3000000000000003 17.900000000000002 0.7000000000000002 18.3 0.30000000000000027 C 18.7 -0.09999999999999964 19.3 -0.09999999999999976 19.7 0.30000000000000027 L 23.7 4.300000000000001 C 24.099999999999998 4.700000000000001 24.099999999999998 5.300000000000001 23.7 5.700000000000001 C 23.5 5.9 23.3 6 23 6 z" stroke-linecap="round" />
</g>
		<g transform="matrix(33.33 0 0 33.33 -258.33 258.33)"  >
<path style="stroke: none; stroke-width: 1; stroke-dasharray: none; stroke-linecap: butt; stroke-dashoffset: 0; stroke-linejoin: miter; stroke-miterlimit: 4; fill: rgb(255,255,255); fill-rule: nonzero; opacity: 1;" vector-effect="non-scaling-stroke"  transform=" translate(-4.25, -19.75)" d="M 1 24 C 0.7 24 0.5 23.9 0.30000000000000004 23.7 C -0.09999999999999998 23.3 -0.09999999999999998 22.7 0.30000000000000004 22.3 L 6.8 15.8 C 7.2 15.4 7.8 15.4 8.2 15.8 C 8.599999999999998 16.200000000000003 8.6 16.8 8.2 17.2 L 1.6999999999999993 23.7 C 1.5 23.9 1.3 24 1 24 z" stroke-linecap="round" />
</g>
		<g transform="matrix(33.33 0 0 33.33 258.33 -258.33)"  >
<path style="stroke: none; stroke-width: 1; stroke-dasharray: none; stroke-linecap: butt; stroke-dashoffset: 0; stroke-linejoin: miter; stroke-miterlimit: 4; fill: rgb(255,255,255); fill-rule: nonzero; opacity: 1;" vector-effect="non-scaling-stroke"  transform=" translate(-19.75, -4.25)" d="M 18.5 6.5 C 18.2 6.5 18 6.4 17.8 6.2 C 17.400000000000002 5.8 17.400000000000002 5.2 17.8 4.800000000000001 L 20.3 2.3000000000000007 C 20.7 1.9000000000000008 21.3 1.9000000000000008 21.7 2.3000000000000007 C 22.099999999999998 2.7000000000000006 22.099999999999998 3.3000000000000007 21.7 3.7000000000000006 L 19.2 6.200000000000001 C 19 6.4 18.8 6.5 18.5 6.5 z" stroke-linecap="round" />
</g>
</g>
</g>
</svg>