<?xml version="1.0" standalone="no"?>
<!DOCTYPE svg PUBLIC "-//W3C//DTD SVG 20010904//EN"
 "http://www.w3.org/TR/2001/REC-SVG-20010904/DTD/svg10.dtd">
<svg version="1.0" xmlns="http://www.w3.org/2000/svg"
 width="900.000000pt" height="900.000000pt" viewBox="0 0 900.000000 900.000000"
 preserveAspectRatio="xMidYMid meet">
<metadata>
Created by potrace 1.10, written by Peter Selinger 2001-2011
</metadata>
<g transform="translate(0.000000,900.000000) scale(0.100000,-0.100000)"
fill="#000000" stroke="none">
<path style = "stroke: white;stroke-width: 50px;stroke-linejoin: round;paint-order: stroke;" d="M858 7354 c-27 -14 -47 -65 -59 -149 -4 -27 -12 -77 -19 -110 -35
-178 -80 -457 -110 -685 -33 -247 -35 -984 -4 -1209 8 -58 14 -123 14 -145 0
-39 17 -196 42 -386 6 -47 14 -112 18 -145 8 -75 27 -175 45 -240 8 -27 17
-59 20 -70 9 -34 40 -66 56 -60 16 6 70 109 104 195 9 25 23 57 31 72 8 14 14
33 14 42 0 8 6 30 14 48 26 60 44 112 76 218 18 58 38 121 45 140 7 19 21 62
30 95 10 33 23 76 30 95 7 19 21 62 30 95 10 33 23 76 30 95 7 19 18 51 24 70
7 19 16 49 21 65 5 17 18 55 30 85 41 106 51 135 60 165 16 56 55 165 81 223
21 47 53 57 81 25 19 -23 37 -147 45 -314 6 -152 30 -285 62 -347 20 -39 24
-42 62 -42 23 0 55 8 72 18 31 16 193 138 335 250 37 29 76 57 87 63 11 5 34
18 50 29 17 11 35 22 40 24 185 78 268 -13 391 -434 9 -30 23 -70 30 -88 8
-18 14 -39 14 -47 0 -29 78 -182 106 -208 36 -33 87 -36 142 -7 21 11 88 61
148 110 145 120 219 168 272 176 86 13 150 -25 247 -145 101 -125 166 -181
209 -181 77 1 228 105 421 292 80 77 99 77 180 2 135 -127 260 -232 295 -247
8 -4 33 -18 55 -32 48 -29 110 -32 145 -8 31 22 44 35 110 113 134 160 187
200 261 200 46 0 129 -42 199 -101 25 -21 70 -59 100 -84 97 -81 156 -115 210
-122 49 -6 52 -5 88 34 33 35 54 77 96 193 30 82 38 107 46 140 9 39 25 87 46
138 8 18 14 40 14 48 0 9 6 28 14 42 7 15 26 54 42 87 16 33 47 77 68 97 37
36 43 38 102 38 89 0 169 -43 356 -192 209 -167 288 -218 337 -218 29 0 67 52
84 115 21 78 47 308 47 415 0 95 11 147 40 182 18 22 20 22 46 7 28 -17 30
-21 94 -209 21 -63 48 -140 60 -170 12 -30 25 -66 30 -80 4 -14 12 -36 18 -50
5 -14 24 -72 42 -130 18 -58 38 -121 45 -140 7 -19 20 -62 30 -95 9 -33 23
-76 30 -95 7 -19 20 -62 30 -95 9 -33 23 -76 30 -95 29 -82 37 -107 45 -135 5
-16 18 -55 30 -85 12 -30 24 -66 27 -80 3 -14 12 -34 19 -45 8 -11 14 -25 14
-33 0 -20 79 -179 96 -193 67 -55 119 188 188 866 42 406 49 543 43 828 -7
379 -35 659 -99 1002 -6 33 -14 83 -18 110 -8 59 -26 155 -46 242 -8 34 -14
71 -14 81 0 11 -11 31 -25 46 -23 24 -31 27 -68 21 -64 -9 -239 -51 -337 -81
-308 -93 -380 -146 -500 -369 -24 -44 -55 -101 -70 -128 -67 -121 -163 -196
-305 -237 -253 -74 -281 -92 -347 -228 -24 -49 -59 -103 -82 -125 l-40 -39
-81 6 c-44 3 -97 8 -118 12 -104 18 -167 -32 -356 -281 -95 -127 -143 -178
-200 -218 -42 -29 -52 -32 -126 -32 -74 0 -85 3 -150 38 -38 21 -108 62 -155
92 -47 29 -107 58 -135 65 -84 20 -105 6 -303 -202 -71 -75 -111 -94 -179 -84
-53 7 -92 35 -218 158 -49 49 -93 88 -99 88 -5 0 -17 7 -27 16 -24 22 -143 21
-195 -2 -22 -9 -106 -50 -189 -91 -130 -64 -157 -73 -203 -73 -45 0 -63 6
-108 36 -61 41 -146 133 -256 279 -94 123 -131 164 -185 199 -45 30 -59 31
-241 10 -94 -11 -132 18 -198 153 -59 119 -108 159 -250 206 -29 9 -59 17 -68
17 -15 0 -45 12 -144 57 -95 43 -154 110 -236 268 -57 109 -128 214 -173 255
-45 42 -98 80 -112 80 -5 0 -22 6 -38 14 -38 19 -95 40 -168 61 -33 10 -78 24
-100 31 -23 8 -49 14 -59 14 -11 0 -42 6 -70 14 -139 38 -172 44 -198 30z"/>
</g>
</svg>
